<?xml version="1.0" encoding="utf-8"?>
<!-- Generator: Adobe Illustrator 26.0.2, SVG Export Plug-In . SVG Version: 6.00 Build 0)  -->
<svg version="1.1" id="svg4525" xmlns="http://www.w3.org/2000/svg" xmlns:xlink="http://www.w3.org/1999/xlink" x="0px" y="0px"
	 viewBox="0 0 2199 2500" style="enable-background:new 0 0 2199 2500;" xml:space="preserve">
<style type="text/css">
	.st0{fill:#D4B830;}
	.st1{opacity:0.986;fill:#EBEBEB;fill-opacity:0;enable-background:new    ;}
	.st2{opacity:0.986;fill:#EBEBEB;fill-opacity:0.9216;enable-background:new    ;}
	.st3{fill:#FDD83C;}
</style>
<g id="g5193" transform="translate(4.988 -113.385)">
	<path id="path5113" class="st0" d="M199,2360.5L-5.1,113.5l2199,0.9l-202.4,2244.4l-898.8,253.9L199,2360.5z M1826,2237.9
		l170.7-1924.5h-900.5L1103,2436L1826,2237.9z M1012.1,595.5H793.4l-2.6,1151.8l-424.5-115.8l0.9,263.3l644.9,174.1L1012.1,595.5
		L1012.1,595.5z"/>
	<path id="path5159" class="st1" d="M940,2047.5c-28.3-8.6-168.1-46.3-310.5-84.9l-258.1-69.5v-129.5c0-126.9,0-129.5,12.9-125.2
		c6.9,2.6,101.2,28.3,209.3,58.3l196.4,54l1.7-574.6l1.7-574.6h214.4v730.7c0,580.6-1.7,730.7-7.7,730.7
		C995.8,2062.1,968.3,2055.2,940,2047.5L940,2047.5z"/>
	<path id="path5157" class="st2" d="M367.1,1894.8l-0.9-263.3c0,0,271,76.3,424.5,115.8l2.6-1150.9h218.7v1472.6L367.1,1894.8
		L367.1,1894.8z"/>
	<g>
		<polygon class="st2" points="1868,857.9 1886.9,595.5 1182.7,598.9 1192.2,1554.3 1617.6,1481.4 1611.6,1694.1 1182.7,1808.2 
			1187,2068.9 1779.7,1914.5 1779.7,1914.5 1838.8,1195 1401.4,1243.9 1401.4,859.7 		"/>
		<path class="st3" d="M1096.1,312.5v2122.6L1826,2237l170.7-1924.5H1096.1z M1838.8,1195l-59.2,719.6v0L1187,2068.9l-4.3-260.7
			l428.8-114.1l6-212.7l-425.4,72.9l-9.4-955.4l704.1-3.4L1868,857.9l-466.6,1.7v384.2L1838.8,1195z"/>
	</g>
	<rect x="2731.9" y="-61.7" class="st3" width="819" height="988.3"/>
	<rect x="2611.7" y="1199.5" class="st2" width="999.2" height="764.4"/>
</g>
</svg>
